<?xml version="1.0" standalone="no"?>
<!DOCTYPE svg PUBLIC "-//W3C//DTD SVG 20010904//EN"
 "http://www.w3.org/TR/2001/REC-SVG-20010904/DTD/svg10.dtd">
<svg version="1.0" xmlns="http://www.w3.org/2000/svg"
 width="500.000000pt" height="500.000000pt" viewBox="0 0 500.000000 500.000000"
 preserveAspectRatio="xMidYMid meet">

<g transform="translate(0.000000,500.000000) scale(0.100000,-0.100000)"
fill="#000000" stroke="none">
<path d="M1652 3730 c0 -14 2 -19 5 -12 2 6 2 18 0 25 -3 6 -5 1 -5 -13z"/>
<path d="M1652 3670 c0 -19 2 -27 5 -17 2 9 2 25 0 35 -3 9 -5 1 -5 -18z"/>
<path d="M1472 3670 c-30 -18 -35 -19 -48 -5 -37 36 -94 0 -94 -60 l0 -35 90
0 c53 0 90 4 90 10 0 6 -13 10 -29 10 -55 0 -46 34 17 69 8 5 13 13 11 20 -3
7 -15 4 -37 -9z m-54 -52 c3 -25 0 -28 -27 -28 -26 0 -31 4 -31 23 0 30 9 39
35 35 13 -2 21 -12 23 -30z"/>
<path d="M1652 3600 c0 -19 2 -27 5 -17 2 9 2 25 0 35 -3 9 -5 1 -5 -18z"/>
<path d="M1652 3530 c0 -19 2 -27 5 -17 2 9 2 25 0 35 -3 9 -5 1 -5 -18z"/>
<path d="M1975 3056 l0 -484 286 -7 c460 -12 628 11 747 102 98 74 94 252 -8
319 -57 38 -132 63 -210 70 -38 4 -70 10 -70 14 0 3 32 11 71 17 87 14 152 46
192 96 26 31 32 49 35 101 9 139 -83 216 -294 245 -41 6 -227 11 -412 11
l-337 0 0 -484z m738 307 c103 -48 102 -174 -1 -225 -45 -22 -57 -23 -282 -23
l-235 0 -3 65 c-2 36 0 98 3 138 l7 74 231 -4 c213 -3 236 -5 280 -25z m44
-407 c52 -22 73 -53 73 -106 0 -55 -37 -92 -116 -117 -50 -15 -92 -18 -282
-17 -123 1 -224 3 -226 5 -2 2 -6 62 -10 132 l-6 128 262 -3 c227 -3 269 -6
305 -22z"/>
<path d="M1330 3465 l0 -55 90 0 90 0 0 55 c0 30 -4 55 -10 55 -5 0 -10 -20
-10 -45 0 -43 -1 -45 -30 -45 -28 0 -30 2 -30 40 0 22 -4 40 -10 40 -5 0 -10
-18 -10 -40 0 -36 -2 -40 -25 -40 -23 0 -25 4 -25 45 0 33 -4 45 -15 45 -12 0
-15 -13 -15 -55z"/>
<path d="M1652 3460 c0 -19 2 -27 5 -17 2 9 2 25 0 35 -3 9 -5 1 -5 -18z"/>
<path d="M1652 3390 c0 -19 2 -27 5 -17 2 9 2 25 0 35 -3 9 -5 1 -5 -18z"/>
<path d="M1332 3358 c3 -7 31 -23 64 -35 l59 -21 -40 -17 c-22 -10 -50 -21
-62 -26 -13 -5 -23 -13 -23 -19 0 -12 2 -12 32 -1 16 6 35 3 63 -10 22 -9 35
-18 28 -18 -25 -2 -123 -43 -123 -52 0 -14 22 -11 86 15 32 12 68 26 79 31 17
6 13 11 -30 30 l-50 23 50 22 50 22 -90 34 c-104 39 -98 38 -93 22z"/>
<path d="M1652 3320 c0 -19 2 -27 5 -17 2 9 2 25 0 35 -3 9 -5 1 -5 -18z"/>
<path d="M1652 3250 c0 -19 2 -27 5 -17 2 9 2 25 0 35 -3 9 -5 1 -5 -18z"/>
<path d="M1652 3180 c0 -19 2 -27 5 -17 2 9 2 25 0 35 -3 9 -5 1 -5 -18z"/>
<path d="M1652 3110 c0 -19 2 -27 5 -17 2 9 2 25 0 35 -3 9 -5 1 -5 -18z"/>
<path d="M1384 3110 c-56 -22 -69 -90 -28 -139 35 -41 89 -43 128 -5 69 70 -9
181 -100 144z m92 -45 c21 -32 12 -69 -21 -91 -67 -44 -135 44 -79 101 25 25
81 19 100 -10z"/>
<path d="M1652 3040 c0 -19 2 -27 5 -17 2 9 2 25 0 35 -3 9 -5 1 -5 -18z"/>
<path d="M1652 2970 c0 -19 2 -27 5 -17 2 9 2 25 0 35 -3 9 -5 1 -5 -18z"/>
<path d="M1652 2900 c0 -19 2 -27 5 -17 2 9 2 25 0 35 -3 9 -5 1 -5 -18z"/>
<path d="M1490 2865 l0 -45 -80 0 c-47 0 -80 -4 -80 -10 0 -6 37 -10 90 -10
l90 0 0 55 c0 30 -4 55 -10 55 -5 0 -10 -20 -10 -45z"/>
<path d="M1652 2830 c0 -19 2 -27 5 -17 2 9 2 25 0 35 -3 9 -5 1 -5 -18z"/>
<path d="M1652 2760 c0 -19 2 -27 5 -17 2 9 2 25 0 35 -3 9 -5 1 -5 -18z"/>
<path d="M1652 2690 c0 -19 2 -27 5 -17 2 9 2 25 0 35 -3 9 -5 1 -5 -18z"/>
<path d="M1337 2663 c-17 -17 -2 -23 55 -23 l62 0 -64 -65 -64 -65 92 0 c55 0
92 4 92 10 0 6 -27 10 -60 10 -33 0 -60 3 -60 8 0 4 27 31 60 60 33 29 60 57
60 63 0 10 -163 13 -173 2z"/>
<path d="M1652 2620 c0 -19 2 -27 5 -17 2 9 2 25 0 35 -3 9 -5 1 -5 -18z"/>
<path d="M1652 2550 c0 -19 2 -27 5 -17 2 9 2 25 0 35 -3 9 -5 1 -5 -18z"/>
<path d="M1652 2480 c0 -19 2 -27 5 -17 2 9 2 25 0 35 -3 9 -5 1 -5 -18z"/>
<path d="M1330 2460 c0 -5 18 -19 40 -30 22 -11 40 -25 40 -30 0 -5 -18 -19
-40 -30 -22 -11 -40 -25 -40 -30 0 -16 13 -12 71 20 30 16 66 30 82 30 15 0
27 5 27 10 0 6 -13 10 -30 10 -16 0 -52 14 -80 30 -54 32 -70 36 -70 20z"/>
<path d="M1652 2410 c0 -19 2 -27 5 -17 2 9 2 25 0 35 -3 9 -5 1 -5 -18z"/>
<path d="M1652 2340 c0 -19 2 -27 5 -17 2 9 2 25 0 35 -3 9 -5 1 -5 -18z"/>
<path d="M2020 1849 l0 -479 508 0 507 0 0 96 0 96 -55 -6 c-166 -18 -284 -27
-455 -31 -104 -3 -209 -8 -233 -10 l-44 -5 4 408 3 409 -117 0 -118 0 0 -478z"/>
<path d="M1490 2255 l0 -45 -80 0 c-47 0 -80 -4 -80 -10 0 -6 37 -10 90 -10
l90 0 0 55 c0 30 -4 55 -10 55 -5 0 -10 -20 -10 -45z"/>
<path d="M1652 2270 c0 -19 2 -27 5 -17 2 9 2 25 0 35 -3 9 -5 1 -5 -18z"/>
<path d="M1652 2200 c0 -19 2 -27 5 -17 2 9 2 25 0 35 -3 9 -5 1 -5 -18z"/>
<path d="M1652 2130 c0 -19 2 -27 5 -17 2 9 2 25 0 35 -3 9 -5 1 -5 -18z"/>
<path d="M1330 2139 c0 -8 16 -30 35 -49 19 -19 35 -38 35 -42 0 -4 -16 -8
-35 -8 -19 0 -35 -4 -35 -10 0 -6 37 -10 90 -10 53 0 90 4 90 10 0 6 -15 10
-34 10 -45 0 -56 18 -25 41 13 10 32 24 43 32 10 7 17 19 15 26 -3 8 -22 -2
-52 -25 l-48 -37 -39 38 c-25 25 -40 33 -40 24z"/>
<path d="M1652 2060 c0 -19 2 -27 5 -17 2 9 2 25 0 35 -3 9 -5 1 -5 -18z"/>
<path d="M1652 1990 c0 -19 2 -27 5 -17 2 9 2 25 0 35 -3 9 -5 1 -5 -18z"/>
<path d="M1359 1951 c-20 -20 -29 -39 -29 -61 0 -43 47 -90 90 -90 43 0 90 47
90 90 0 22 -9 41 -29 61 -20 20 -39 29 -61 29 -22 0 -41 -9 -61 -29z m114 -23
c20 -23 21 -41 6 -69 -24 -47 -100 -43 -119 6 -28 72 61 122 113 63z"/>
<path d="M1652 1920 c0 -19 2 -27 5 -17 2 9 2 25 0 35 -3 9 -5 1 -5 -18z"/>
<path d="M1652 1850 c0 -19 2 -27 5 -17 2 9 2 25 0 35 -3 9 -5 1 -5 -18z"/>
<path d="M1652 1780 c0 -19 2 -27 5 -17 2 9 2 25 0 35 -3 9 -5 1 -5 -18z"/>
<path d="M1359 1741 c-20 -20 -29 -39 -29 -61 0 -43 47 -90 90 -90 43 0 90 47
90 90 0 22 -9 41 -29 61 -20 20 -39 29 -61 29 -22 0 -41 -9 -61 -29z m114 -23
c20 -23 21 -41 6 -69 -24 -47 -100 -43 -119 6 -28 72 61 122 113 63z"/>
<path d="M1652 1710 c0 -19 2 -27 5 -17 2 9 2 25 0 35 -3 9 -5 1 -5 -18z"/>
<path d="M1652 1640 c0 -19 2 -27 5 -17 2 9 2 25 0 35 -3 9 -5 1 -5 -18z"/>
<path d="M1652 1570 c0 -19 2 -27 5 -17 2 9 2 25 0 35 -3 9 -5 1 -5 -18z"/>
<path d="M1472 1540 c-30 -18 -35 -19 -48 -5 -37 36 -94 0 -94 -60 l0 -35 90
0 c53 0 90 4 90 10 0 6 -13 10 -29 10 -55 0 -46 34 17 69 8 5 13 13 11 20 -3
7 -15 4 -37 -9z m-54 -52 c3 -25 0 -28 -27 -28 -26 0 -31 4 -31 23 0 13 3 27
7 31 17 17 48 0 51 -26z"/>
<path d="M1652 1500 c0 -19 2 -27 5 -17 2 9 2 25 0 35 -3 9 -5 1 -5 -18z"/>
<path d="M1652 1430 c0 -19 2 -27 5 -17 2 9 2 25 0 35 -3 9 -5 1 -5 -18z"/>
<path d="M1434 1386 c-13 -10 -23 -11 -31 -4 -7 6 -24 8 -37 4 -24 -6 -36 -30
-36 -73 0 -22 3 -23 90 -23 l90 0 0 38 c0 25 -7 45 -18 55 -23 21 -33 21 -58
3z m50 -32 c13 -33 6 -44 -24 -44 -19 0 -30 5 -30 14 0 27 12 46 30 46 10 0
21 -7 24 -16z m-76 -21 c3 -19 -1 -23 -22 -23 -21 0 -26 5 -26 26 0 21 4 25
23 22 14 -2 23 -11 25 -25z"/>
<path d="M1652 1360 c0 -19 2 -27 5 -17 2 9 2 25 0 35 -3 9 -5 1 -5 -18z"/>
<path d="M1652 1290 c0 -19 2 -27 5 -17 2 9 2 25 0 35 -3 9 -5 1 -5 -18z"/>
</g>
</svg>
